<svg width="112" height="63" viewBox="0 0 112 63" fill="none" xmlns="http://www.w3.org/2000/svg">
<g filter="url(#filter0_i_16_3)">
<path d="M99.0689 31.7284C99.355 30.2077 99.5041 28.6433 99.5041 27.0465C99.5041 12.1092 86.4501 0 70.3471 0C58.3759 0 48.0897 6.69233 43.5993 16.2638C39.9616 13.3504 35.2411 11.5914 30.0826 11.5914C18.5805 11.5914 9.2562 20.3369 9.2562 31.125C9.2562 31.7257 9.28511 32.3201 9.34171 32.907C3.80938 35.4207 0 40.6951 0 46.7948C0 55.3305 7.45946 62.25 16.6612 62.25H95.3388C104.541 62.25 112 55.3305 112 46.7948C112 39.4487 106.475 33.2996 99.0689 31.7284Z" fill="url(#paint0_linear_16_3)"/>
</g>
<defs>
<filter id="filter0_i_16_3" x="0" y="0" width="112" height="72.25" filterUnits="userSpaceOnUse" color-interpolation-filters="sRGB">
<feFlood flood-opacity="0" result="BackgroundImageFix"/>
<feBlend mode="normal" in="SourceGraphic" in2="BackgroundImageFix" result="shape"/>
<feColorMatrix in="SourceAlpha" type="matrix" values="0 0 0 0 0 0 0 0 0 0 0 0 0 0 0 0 0 0 127 0" result="hardAlpha"/>
<feOffset dy="11"/>
<feGaussianBlur stdDeviation="5"/>
<feComposite in2="hardAlpha" operator="arithmetic" k2="-1" k3="1"/>
<feColorMatrix type="matrix" values="0 0 0 0 1 0 0 0 0 1 0 0 0 0 1 0 0 0 1 0"/>
<feBlend mode="normal" in2="shape" result="effect1_innerShadow_16_3"/>
</filter>
<linearGradient id="paint0_linear_16_3" x1="7.12368" y1="56.6919" x2="114.682" y2="-29.2169" gradientUnits="userSpaceOnUse">
<stop stop-color="white"/>
<stop offset="1" stop-color="white" stop-opacity="0.58"/>
</linearGradient>
</defs>
</svg>
