<svg width="32" height="37" viewBox="0 0 32 37" fill="none" xmlns="http://www.w3.org/2000/svg">
<g filter="url(#filter0_d_51_125)">
<path d="M26 12.9744C26 17.1131 19.0274 25.514 16.7267 28.1733C16.3392 28.6212 15.6608 28.6212 15.2733 28.1733C12.9726 25.514 6 17.1131 6 12.9744C6 8.01796 10.4772 4 16 4C21.5228 4 26 8.01796 26 12.9744Z" fill="#E50019"/>
<path d="M16 3C21.9706 3 27 7.36689 27 12.9746C26.9999 14.2451 26.4793 15.7158 25.7734 17.1602C25.0537 18.6328 24.0797 20.1991 23.0498 21.6953C20.9887 24.6894 18.6433 27.4865 17.4834 28.8271C16.6971 29.7361 15.3029 29.7361 14.5166 28.8271C13.3567 27.4865 11.0113 24.6894 8.9502 21.6953C7.92026 20.1991 6.94625 18.6328 6.22656 17.1602C5.52071 15.7158 5.00007 14.2451 5 12.9746C5 7.36689 10.0294 3 16 3Z" stroke="white" stroke-width="2"/>
</g>
<defs>
<filter id="filter0_d_51_125" x="0" y="0" width="32" height="36.5093" filterUnits="userSpaceOnUse" color-interpolation-filters="sRGB">
<feFlood flood-opacity="0" result="BackgroundImageFix"/>
<feColorMatrix in="SourceAlpha" type="matrix" values="0 0 0 0 0 0 0 0 0 0 0 0 0 0 0 0 0 0 127 0" result="hardAlpha"/>
<feOffset dy="2"/>
<feGaussianBlur stdDeviation="2"/>
<feColorMatrix type="matrix" values="0 0 0 0 0 0 0 0 0 0 0 0 0 0 0 0 0 0 0.5 0"/>
<feBlend mode="normal" in2="BackgroundImageFix" result="effect1_dropShadow_51_125"/>
<feBlend mode="normal" in="SourceGraphic" in2="effect1_dropShadow_51_125" result="shape"/>
</filter>
</defs>
</svg>
