<svg width="159" height="78" viewBox="0 0 159 78" fill="none" xmlns="http://www.w3.org/2000/svg">
<path d="M79.6875 0.250977C69.2103 0.187618 58.5481 3.00409 49.1094 6.29883C38.8018 11.3204 31.9946 15.1322 24.1787 21.959L23.418 22.6299C15.9845 29.7619 10.5431 38.063 6.51367 47.4111C2.51711 56.683 0.288355 66.7472 0.251953 76.7852H20.835C20.8687 69.4411 22.3884 62.1732 25.3115 55.3916C28.2678 48.5333 32.5997 42.3074 38.0576 37.0723C43.5155 31.8371 49.9919 27.6962 57.1133 24.8867C64.2348 22.0772 71.8619 20.6547 79.5547 20.7012C87.2474 20.7477 94.855 22.2619 101.939 25.1572C109.024 28.0526 115.446 32.2724 120.836 37.5732C126.225 42.8741 130.476 49.1523 133.343 56.0459C136.177 62.862 137.604 70.1468 137.542 77.4902L158.746 77.7461C158.842 67.7089 156.899 57.7497 153.024 48.4326C149.117 39.038 143.324 30.481 135.977 23.2549C128.629 16.0288 119.873 10.2762 110.213 6.32812C100.553 2.38007 90.1784 0.314426 79.6875 0.250977Z" stroke="#4F4F4F" stroke-opacity="0.5" stroke-width="0.5"/>
</svg>
