<svg width="40" height="40" viewBox="0 0 40 40" fill="none" xmlns="http://www.w3.org/2000/svg">
<path d="M6.66675 33.3335H5.66675V34.3335H6.66675V33.3335ZM15.7072 25.7073C16.0977 25.3167 16.0977 24.6836 15.7072 24.2931C15.3167 23.9025 14.6835 23.9025 14.293 24.2931L15.0001 25.0002L15.7072 25.7073ZM6.66675 23.3335H5.66675V33.3335H6.66675H7.66675V23.3335H6.66675ZM6.66675 33.3335V34.3335H16.6667V33.3335V32.3335H6.66675V33.3335ZM6.66675 33.3335L7.37385 34.0406L15.7072 25.7073L15.0001 25.0002L14.293 24.2931L5.95964 32.6264L6.66675 33.3335Z" fill="#A1A1A1"/>
<path d="M33.3333 6.6665H34.3333V5.6665H33.3333V6.6665ZM24.2928 14.2927C23.9023 14.6833 23.9023 15.3164 24.2928 15.7069C24.6833 16.0975 25.3165 16.0975 25.707 15.7069L24.9999 14.9998L24.2928 14.2927ZM33.3333 16.6665H34.3333V6.6665H33.3333H32.3333V16.6665H33.3333ZM33.3333 6.6665V5.6665H23.3333V6.6665V7.6665H33.3333V6.6665ZM33.3333 6.6665L32.6261 5.9594L24.2928 14.2927L24.9999 14.9998L25.707 15.7069L34.0404 7.37361L33.3333 6.6665Z" fill="#A1A1A1"/>
</svg>
