<svg width="40" height="40" viewBox="0 0 40 40" fill="none" xmlns="http://www.w3.org/2000/svg">
<path d="M6.66666 33.3335H5.66666V34.3335H6.66666V33.3335ZM15.7071 25.7073C16.0976 25.3167 16.0976 24.6836 15.7071 24.2931C15.3166 23.9025 14.6834 23.9025 14.2929 24.2931L15 25.0002L15.7071 25.7073ZM6.66666 23.3335H5.66666V33.3335H6.66666H7.66666V23.3335H6.66666ZM6.66666 33.3335V34.3335H16.6667V33.3335V32.3335H6.66666V33.3335ZM6.66666 33.3335L7.37376 34.0406L15.7071 25.7073L15 25.0002L14.2929 24.2931L5.95955 32.6264L6.66666 33.3335Z" fill="#A1A1A1"/>
<path d="M33.3333 6.6665H34.3333V5.6665H33.3333V6.6665ZM24.2929 14.2927C23.9024 14.6833 23.9024 15.3164 24.2929 15.7069C24.6834 16.0975 25.3166 16.0975 25.7071 15.7069L25 14.9998L24.2929 14.2927ZM33.3333 16.6665H34.3333V6.6665H33.3333H32.3333V16.6665H33.3333ZM33.3333 6.6665V5.6665H23.3333V6.6665V7.6665H33.3333V6.6665ZM33.3333 6.6665L32.6262 5.9594L24.2929 14.2927L25 14.9998L25.7071 15.7069L34.0405 7.37361L33.3333 6.6665Z" fill="#A1A1A1"/>
</svg>
