<svg width="47" height="45" viewBox="0 0 47 45" fill="none" xmlns="http://www.w3.org/2000/svg">
<path opacity="0.3" d="M29.1711 4.1342C29.1711 2.46193 27.2408 1.52812 25.9297 2.5661L12.664 13.0681C12.3107 13.3478 11.8732 13.5 11.4226 13.5L3.24998 13.5001C1.86928 13.5001 0.75 14.6194 0.75 16.0001V29.0001C0.75 30.3808 1.86929 31.5001 3.25 31.5001H11.4227C11.8733 31.5001 12.3108 31.6523 12.6641 31.932L25.9297 42.4339C27.2408 43.4719 29.1711 42.5381 29.1711 40.8658V22.5V4.1342Z" fill="#2B3F6C" stroke="#2B3F6C" stroke-width="1.5"/>
<path d="M36.2765 29.0124C37.7637 27.1985 38.6449 24.9439 38.6449 22.5008C38.6449 20.0577 37.7637 17.8031 36.2765 15.9893" stroke="#2B3F6C" stroke-width="1.5" stroke-linecap="round"/>
<path d="M41.0131 35.5242C43.9874 31.8966 45.7499 27.3874 45.7499 22.5011C45.7499 17.6148 43.9874 13.1057 41.0131 9.47803" stroke="#2B3F6C" stroke-width="1.5" stroke-linecap="round"/>
</svg>
