<svg width="40" height="30" viewBox="0 0 40 30" fill="none" xmlns="http://www.w3.org/2000/svg">
<path d="M22.2222 7.5C22.2222 6.11929 23.2171 5 24.4444 5H26.6667C27.894 5 28.8889 6.11929 28.8889 7.5V27.5C28.8889 28.8807 27.894 30 26.6667 30H24.4444C23.2171 30 22.2222 28.8807 22.2222 27.5V7.5Z" fill="black"/>
<path d="M33.3333 2.5C33.3333 1.11929 34.3283 0 35.5556 0H37.7778C39.0051 0 40 1.11929 40 2.5V27.5C40 28.8807 39.0051 30 37.7778 30H35.5556C34.3283 30 33.3333 28.8807 33.3333 27.5V2.5Z" fill="black"/>
<path d="M11.1111 16.25C11.1111 14.8693 12.106 13.75 13.3333 13.75H15.5556C16.7829 13.75 17.7778 14.8693 17.7778 16.25V27.5C17.7778 28.8807 16.7829 30 15.5556 30H13.3333C12.106 30 11.1111 28.8807 11.1111 27.5V16.25Z" fill="black"/>
<path d="M0 22.5C0 21.1193 0.994923 20 2.22222 20H4.44444C5.67174 20 6.66667 21.1193 6.66667 22.5V27.5C6.66667 28.8807 5.67174 30 4.44444 30H2.22222C0.994923 30 0 28.8807 0 27.5V22.5Z" fill="black"/>
</svg>
