<svg width="47" height="45" viewBox="0 0 47 45" fill="none" xmlns="http://www.w3.org/2000/svg">
<path opacity="0.3" d="M34.5 3.73703C34.5 2.13964 32.7197 1.18686 31.3906 2.07293L14.7538 13.1641C14.4253 13.3831 14.0393 13.5 13.6444 13.5L3.24999 13.5001C1.86928 13.5001 0.75 14.6194 0.75 16.0001V29.0001C0.75 30.3808 1.86929 31.5001 3.25 31.5001H13.6445C14.0394 31.5001 14.4254 31.617 14.7539 31.836L31.3906 42.9271C32.7197 43.8131 34.5 42.8604 34.5 41.263V22.5V3.73703Z" fill="#2B3F6C" stroke="#2B3F6C" stroke-width="1.5"/>
<path d="M42.9375 29.0124C44.7035 27.1985 45.75 24.9439 45.75 22.5008C45.75 20.0577 44.7035 17.8031 42.9375 15.9893" stroke="#2B3F6C" stroke-width="1.5" stroke-linecap="round"/>
</svg>
