<svg width="432" height="60" viewBox="0 0 432 60" fill="none" xmlns="http://www.w3.org/2000/svg">
<path d="M46.8038 13.0557C46.6534 12.8842 46.4721 12.7466 46.2706 12.6511C46.0691 12.5557 45.8516 12.5044 45.631 12.5003C45.4104 12.4961 45.1913 12.5393 44.9868 12.6271C44.7823 12.7149 44.5965 12.8456 44.4405 13.0114C44.2845 13.1772 44.1615 13.3746 44.0789 13.592C43.9963 13.8094 43.9557 14.0423 43.9596 14.2767C43.9635 14.5112 44.0118 14.7423 44.1015 14.9565C44.1913 15.1707 44.3208 15.3634 44.4822 15.5233L46.7118 17.8931H42.4431C41.2435 17.8931 40.0585 18.1724 38.9714 18.7113C37.8843 19.2502 36.9214 20.0357 36.1505 21.0125L22.6302 38.1365C22.1676 38.7227 21.5898 39.194 20.9374 39.5173C20.2851 39.8407 19.574 40.0082 18.8542 40.0081H18V43.5H18.8564C20.0559 43.5 21.2409 43.2207 22.328 42.6818C23.4152 42.1429 24.378 41.3574 25.1489 40.3806L38.6693 23.2566C39.1319 22.6704 39.7097 22.1991 40.362 21.8758C41.0144 21.5524 41.7254 21.3849 42.4452 21.3849H46.7096L44.4822 23.7547C44.192 24.0857 44.034 24.5235 44.0415 24.9758C44.0491 25.4281 44.2214 25.8596 44.5224 26.1795C44.8234 26.4994 45.2294 26.6826 45.655 26.6906C46.0806 26.6986 46.4924 26.5307 46.8038 26.2223L53 19.639L46.8016 13.0557H46.8038ZM18.8564 19.057H18V15.5652H18.8564C21.2854 15.5652 23.5873 16.7058 25.1489 18.6846L28.7103 23.1937L26.566 25.9104L22.6324 20.9287C22.1695 20.3422 21.5914 19.8707 20.9386 19.5474C20.2859 19.224 19.5744 19.0566 18.8542 19.057H18.8564Z" fill="white" fill-opacity="0.698"/>
<path d="M35 34.7676L37.0802 31.533L39.1116 34.6928C39.5599 35.3907 40.1198 35.9518 40.752 36.3368C41.3843 36.7218 42.0734 36.9213 42.771 36.9212H46.9038L44.745 34.0996C44.5886 33.9093 44.4632 33.6798 44.3762 33.4248C44.2892 33.1698 44.2424 32.8946 44.2386 32.6154C44.2348 32.3363 44.2742 32.0591 44.3542 31.8002C44.4343 31.5414 44.5535 31.3063 44.7046 31.1089C44.8558 30.9115 45.0359 30.7558 45.2341 30.6513C45.4323 30.5467 45.6447 30.4954 45.8584 30.5003C46.0722 30.5052 46.283 30.5663 46.4783 30.68C46.6735 30.7936 46.8493 30.9574 46.995 31.1616L53 39L46.995 46.8384C46.8493 47.0426 46.6735 47.2064 46.4783 47.32C46.283 47.4337 46.0722 47.4948 45.8584 47.4997C45.6447 47.5046 45.4323 47.4533 45.2341 47.3487C45.0359 47.2442 44.8558 47.0885 44.7046 46.8911C44.5535 46.6937 44.4343 46.4586 44.3542 46.1998C44.2742 45.9409 44.2348 45.6637 44.2386 45.3846C44.2424 45.1054 44.2892 44.8302 44.3762 44.5752C44.4632 44.3202 44.5886 44.0907 44.745 43.9004L46.9059 41.0788H42.7689C41.6063 41.0788 40.4579 40.7462 39.4044 40.1046C38.3508 39.4629 37.4176 38.5277 36.6705 37.3647L35 34.7676Z" fill="white" fill-opacity="0.698"/>
<path d="M104.393 7.5C104.99 7.5 105.562 7.73705 105.984 8.15901C106.406 8.58097 106.643 9.15326 106.643 9.75V26.3036L138.625 7.84071C138.967 7.64327 139.355 7.5393 139.75 7.53927C140.145 7.53924 140.533 7.64314 140.875 7.84054C141.217 8.03794 141.501 8.32187 141.698 8.66382C141.896 9.00576 142 9.39367 142 9.78857V50.2082C142 50.6034 141.897 50.9917 141.7 51.3341C141.502 51.6765 141.218 51.9609 140.876 52.1587C140.534 52.3564 140.146 52.4606 139.751 52.4607C139.355 52.4608 138.967 52.3569 138.625 52.1593L106.643 33.6932V50.25C106.643 50.8467 106.406 51.419 105.984 51.841C105.562 52.2629 104.99 52.5 104.393 52.5H99.25C98.6533 52.5 98.081 52.2629 97.659 51.841C97.2371 51.419 97 50.8467 97 50.25V9.75C97 9.15326 97.2371 8.58097 97.659 8.15901C98.081 7.73705 98.6533 7.5 99.25 7.5H104.393Z" fill="white" fill-opacity="0.698"/>
<rect x="186" width="60" height="60" rx="30" fill="white"/>
<g clip-path="url(#clip0_604_165)">
<path d="M211 23.713C211 23.59 211.032 23.4692 211.093 23.3627C211.155 23.2562 211.243 23.1677 211.35 23.1062C211.456 23.0447 211.577 23.0122 211.7 23.0122C211.823 23.0122 211.944 23.0445 212.05 23.106L222.94 29.394C223.046 29.4555 223.135 29.5438 223.196 29.6502C223.257 29.7565 223.29 29.8772 223.29 30C223.29 30.1228 223.257 30.2434 223.196 30.3498C223.135 30.4562 223.046 30.5445 222.94 30.606L212.05 36.894C211.944 36.9554 211.823 36.9878 211.7 36.9878C211.577 36.9878 211.457 36.9555 211.35 36.894C211.244 36.8326 211.155 36.7443 211.094 36.6379C211.032 36.5315 211 36.4108 211 36.288V23.713Z" fill="black"/>
</g>
<path d="M327.607 7.5C327.01 7.5 326.438 7.73705 326.016 8.15901C325.594 8.58097 325.357 9.15326 325.357 9.75V26.3036L293.375 7.84393C293.033 7.64661 292.646 7.54266 292.251 7.54248C291.856 7.54231 291.469 7.64593 291.127 7.84295C290.785 8.03996 290.501 8.32344 290.303 8.66494C290.105 9.00644 290.001 9.39395 290 9.78857V50.2082C290 50.6034 290.103 50.9917 290.301 51.3341C290.498 51.6765 290.782 51.9609 291.124 52.1587C291.466 52.3564 291.854 52.4606 292.249 52.4607C292.645 52.4608 293.033 52.3569 293.375 52.1593L325.357 33.6932V50.25C325.357 50.8467 325.594 51.419 326.016 51.841C326.438 52.2629 327.01 52.5 327.607 52.5H332.75C333.347 52.5 333.919 52.2629 334.341 51.841C334.763 51.419 335 50.8467 335 50.25V9.75C335 9.15326 334.763 8.58097 334.341 8.15901C333.919 7.73705 333.347 7.5 332.75 7.5H327.607Z" fill="white" fill-opacity="0.698"/>
<rect x="395" y="46.8262" width="4.05405" height="4.34733" rx="2.02703" fill="#1DB954"/>
<path d="M379 17.6844C379 15.3351 379.864 13.0819 381.403 11.4207C382.941 9.75945 385.028 8.82617 387.203 8.82617H388.844V12.3695H387.203C385.898 12.3695 384.646 12.9294 383.723 13.9262C382.8 14.9229 382.281 16.2748 382.281 17.6844V29.4954C382.281 30.905 382.8 32.2569 383.723 33.2536C384.646 34.2504 385.898 34.8104 387.203 34.8104H389.938V38.3536H387.203C385.028 38.3536 382.941 37.4204 381.403 35.7591C379.864 34.0979 379 31.8448 379 29.4954V17.6844ZM405.797 12.3695H404.156V8.82617H405.797C407.972 8.82617 410.059 9.75945 411.597 11.4207C413.136 13.0819 414 15.3351 414 17.6844V29.4954C414 31.8448 413.136 34.0979 411.597 35.7591C410.059 37.4204 407.972 38.3536 405.797 38.3536H400.459L402.686 40.7584C402.847 40.9206 402.977 41.1161 403.066 41.3335C403.156 41.5508 403.204 41.7854 403.208 42.0233C403.212 42.2612 403.172 42.4974 403.089 42.718C403.007 42.9386 402.884 43.139 402.728 43.3073C402.572 43.4755 402.387 43.6081 402.182 43.6972C401.978 43.7863 401.759 43.8301 401.539 43.8259C401.319 43.8217 401.101 43.7696 400.9 43.6728C400.699 43.576 400.518 43.4364 400.367 43.2623L394.179 36.582L400.367 29.9017C400.518 29.7276 400.699 29.588 400.9 29.4912C401.101 29.3944 401.319 29.3423 401.539 29.3381C401.759 29.3339 401.978 29.3777 402.182 29.4668C402.387 29.5559 402.572 29.6885 402.728 29.8567C402.884 30.025 403.007 30.2254 403.089 30.446C403.172 30.6666 403.212 30.9028 403.208 31.1407C403.204 31.3786 403.156 31.6132 403.066 31.8305C402.977 32.0478 402.847 32.2434 402.686 32.4056L400.462 34.8104H405.797C407.102 34.8104 408.354 34.2504 409.277 33.2536C410.2 32.2569 410.719 30.905 410.719 29.4954V17.6844C410.719 16.2748 410.2 14.9229 409.277 13.9262C408.354 12.9294 407.102 12.3695 405.797 12.3695Z" fill="#1DB954"/>
<path d="M398.865 24.9073V8.82617H396.44C396.207 10.4802 395.057 11.7966 393.189 11.8425V14.2478H396.045V24.9073H398.865Z" fill="#1DB954"/>
<defs>
<clipPath id="clip0_604_165">
<rect width="16" height="16" fill="white" transform="translate(208 22)"/>
</clipPath>
</defs>
</svg>
