<svg width="37" height="54" viewBox="0 0 37 54" fill="none" xmlns="http://www.w3.org/2000/svg">
<path fill-rule="evenodd" clip-rule="evenodd" d="M32.3398 36.3072C32.3398 42.558 26.6535 48.8125 18.1911 48.8125C9.72877 48.8125 4.04248 42.558 4.04248 36.3072C4.04248 29.8235 7.88404 21.7491 12.3993 14.7199C14.4401 11.5428 16.4883 8.77536 18.09 6.73098C19.7222 8.93511 21.84 11.9355 23.9502 15.3216C26.1504 18.8521 28.2904 22.7196 29.8672 26.4836C31.4729 30.3165 32.3398 33.682 32.3398 36.3072ZM0 36.3072C0 24.2442 10.3714 9.69809 15.4519 3.29625C17.0999 1.21966 18.1911 0 18.1911 0C18.1911 0 19.2366 1.26861 20.8263 3.39368C25.8676 10.133 36.3823 25.4862 36.3823 36.3072C36.3823 45.6644 28.2378 53.25 18.1911 53.25C8.14445 53.25 0 45.6644 0 36.3072ZM9.09222 28.8438H13.4411C12.6228 30.8937 12.1274 32.8378 12.1274 34.4917C12.1274 37.0312 14.3905 39.9375 18.1911 39.9375V44.375C12.6096 44.375 8.08495 39.9501 8.08495 34.4917C8.08495 32.6703 8.47101 30.7518 9.09222 28.8438Z" fill="white"/>
</svg>
