<svg width="49" height="43" viewBox="0 0 49 43" fill="none" xmlns="http://www.w3.org/2000/svg">
<path fill-rule="evenodd" clip-rule="evenodd" d="M20.3297 8.91564L20.3297 8.9025L8.82173 8.90234L19.8605 4.52287L19.8593 4.51927C20.0707 4.46075 20.2895 4.43992 20.5072 4.45775C20.5359 4.46011 20.5646 4.46313 20.5933 4.46683L20.5937 4.46689C20.8927 4.50555 21.1801 4.61666 21.4352 4.79219L21.4352 4.79222C21.6903 4.96776 21.9067 5.20333 22.0687 5.48192L22.069 5.48237C22.231 5.76098 22.3346 6.07562 22.3724 6.40357L22.3725 6.4042C22.4102 6.73229 22.381 7.06548 22.2871 7.37968L22.2871 7.37993C22.1931 7.69421 22.0368 7.98162 21.8293 8.22139L21.8291 8.22161C21.6216 8.46128 21.3683 8.64733 21.0874 8.76631L21.0868 8.76655C21.0604 8.77773 21.0338 8.78829 21.0071 8.79822C20.7889 8.87925 20.5598 8.91892 20.3297 8.91564ZM0 7.65501V13.3667L20.2879 13.367C21.0584 13.3765 21.8247 13.2251 22.5459 12.9197L22.5464 12.9195C23.0953 12.6869 23.6091 12.3688 24.0724 11.9764C24.3191 11.7675 24.5515 11.5375 24.7673 11.288L24.7675 11.2878C25.3887 10.57 25.8568 9.70954 26.138 8.76869L26.1381 8.76844C26.4194 7.8276 26.5067 6.82988 26.3939 5.84743L26.3938 5.8468C26.2809 4.86432 25.9707 3.92167 25.4854 3.087L25.4852 3.08655C24.9998 2.25179 24.3516 1.54593 23.5874 1.02003L23.5874 1.02C23.3218 0.837246 23.0445 0.67781 22.7582 0.542704C22.2205 0.289027 21.6508 0.121127 21.0664 0.0456907L21.066 0.0456348C20.1953 -0.0666851 19.3131 0.0289597 18.4797 0.325629L18.4791 0.323727L18.4167 0.348474L18.4093 0.351194L18.4085 0.351508L18.4085 0.351708L0 7.65501ZM0 26.7803V31.366L26.8467 41.8524L26.8463 41.8533C27.8179 42.2789 28.863 42.4639 29.9072 42.3952C30.3086 42.3688 30.7062 42.305 31.0957 42.2054C31.7191 42.0458 32.3219 41.7941 32.8871 41.4555C33.8054 40.9054 34.6019 40.1396 35.2199 39.2127C35.8379 38.2858 36.2621 37.2206 36.4623 36.0931C36.6625 34.9655 36.6338 33.8033 36.3782 32.6893C36.1226 31.5753 35.6464 30.537 34.9835 29.6483C34.5755 29.1012 34.103 28.6192 33.5797 28.214C33.2529 27.961 32.9063 27.7379 32.5434 27.5478C31.6007 27.054 30.5706 26.7942 29.5262 26.787V26.7804L0 26.7803ZM29.4986 31.2448L11.8218 31.2448L28.429 37.7317L28.4275 37.7363C28.8223 37.8962 29.2432 37.9646 29.6638 37.937C30.1109 37.9075 30.5466 37.7701 30.9399 37.5346C31.3331 37.299 31.6742 36.9711 31.9388 36.5741C32.2034 36.1772 32.3851 35.7211 32.4708 35.2382C32.5566 34.7554 32.5443 34.2577 32.4348 33.7807C32.3253 33.3036 32.1214 32.859 31.8376 32.4784C31.5537 32.0979 31.197 31.7907 30.7927 31.579C30.3889 31.3675 29.9477 31.2562 29.5005 31.2532L29.4986 31.2532L29.4986 31.2523L29.4986 31.2448ZM38.6626 9.48202L38.6608 9.48313L36.6613 5.59611L36.659 5.59162L36.663 5.58915C37.7456 4.91833 38.9538 4.529 40.1948 4.4511C40.3749 4.4398 40.5549 4.4351 40.7346 4.43693C41.7953 4.44778 42.8457 4.68652 43.826 5.14176C44.9723 5.67413 45.992 6.48838 46.8067 7.52177C47.6213 8.55517 48.2091 9.78014 48.5247 11.1023C48.8404 12.4245 48.8755 13.8086 48.6273 15.1481C48.3792 16.4875 47.8544 17.7465 47.0934 18.8281C46.4427 19.7529 45.6342 20.5269 44.7149 21.108C44.559 21.2065 44.4 21.2994 44.238 21.3867C43.1204 21.9883 41.8921 22.3002 40.6475 22.2982V22.2976H0V17.8335H40.6532L40.6532 17.8287C41.2749 17.8296 41.8885 17.6738 42.4467 17.3733C43.005 17.0728 43.493 16.6355 43.8731 16.0952C44.2533 15.5549 44.5154 14.926 44.6394 14.2569C44.7633 13.5878 44.7458 12.8964 44.5881 12.2359C44.4304 11.5754 44.1368 10.9635 43.7299 10.4473C43.3229 9.93109 42.8135 9.52435 42.2409 9.25841C41.6683 8.99247 41.0478 8.87444 40.4271 8.9134C39.807 8.95232 39.2034 9.14685 38.6626 9.48202Z" fill="white"/>
</svg>
