<svg width="110" height="35" viewBox="0 0 110 35" fill="none" xmlns="http://www.w3.org/2000/svg">
<path d="M0 17.4478C0 27.0597 7.47764 35 16.5295 35C25.5814 35 33.059 27.0597 33.059 17.4478C33.059 7.83582 25.5814 0 16.5295 0C7.47764 0 0 7.83582 0 17.4478ZM22.6297 25.597C18.7925 23.0896 13.873 22.4627 8.16637 23.8209C6.78891 24.0299 6.59213 21.9403 7.77281 21.7313C14.0698 20.1642 19.3828 20.8955 23.712 23.7164C24.7943 24.4478 23.712 26.2239 22.6297 25.597ZM24.3023 20.8955C19.8748 17.9701 13.0859 17.1343 7.8712 18.806C6.19857 19.3284 5.60823 16.6119 7.18247 16.194C13.1843 14.3134 20.5635 15.2537 25.6798 18.597C27.0572 19.5373 25.6798 21.8358 24.3023 20.8955ZM7.08408 13.4776C5.41145 14.1045 4.32916 11.0746 6.19857 10.3433C12.0036 8.46269 21.8426 8.77612 27.9428 12.6418C29.6154 13.5821 28.0411 16.5075 26.2701 15.4627C20.9571 12.1194 12.102 11.806 7.08408 13.4776ZM44.3739 22.9851C42.7013 22.9851 41.127 22.3582 39.7496 20.8955C39.6512 20.8955 39.6512 21 39.6512 21L38.0769 22.9851C37.9785 23.0896 37.9785 23.194 38.0769 23.2985C39.8479 24.9701 42.0125 25.806 44.3739 25.806C47.7191 25.806 49.7853 23.8209 49.7853 20.8955C49.7853 18.3881 48.3095 17.0299 44.8658 16.0896C42.0125 15.3582 41.5206 14.8358 41.5206 13.791C41.5206 12.7463 42.5045 12.1194 43.7835 12.1194C45.0626 12.1194 46.2433 12.6418 47.6208 13.6866C47.6208 13.6866 47.7191 13.791 47.8175 13.791C47.9159 13.791 47.9159 13.6866 47.9159 13.6866L49.2934 11.597C49.3918 11.4925 49.3918 11.4925 49.2934 11.3881C47.7191 10.0299 45.8497 9.29851 43.7835 9.29851C40.7335 9.29851 38.5689 11.2836 38.5689 14.1045C38.5689 17.1343 40.5367 18.0746 43.6852 18.9104C46.4401 19.5373 46.8336 20.1642 46.8336 21.209C46.8336 22.3582 45.8497 22.9851 44.3739 22.9851ZM53.7209 14.9403V13.5821C53.7209 13.4776 53.6225 13.3731 53.5242 13.3731H50.966C50.8676 13.3731 50.7692 13.4776 50.7692 13.5821V28.9403C50.7692 29.0448 50.8676 29.1493 50.966 29.1493H53.5242C53.6225 29.1493 53.7209 29.0448 53.7209 28.9403V24.1343C54.7048 25.2836 55.7871 25.806 57.263 25.806C59.9195 25.806 62.576 23.6119 62.576 19.4328C62.576 15.2537 59.9195 13.1642 57.263 13.1642C55.7871 13.1642 54.7048 13.6866 53.7209 14.9403ZM56.6726 23.0896C54.9016 23.0896 53.6225 21.5224 53.6225 19.4328C53.6225 17.3433 54.9016 15.8806 56.6726 15.8806C58.4436 15.8806 59.6243 17.3433 59.6243 19.4328C59.6243 21.5224 58.4436 23.0896 56.6726 23.0896ZM63.3631 19.5373C63.3631 23.0896 66.0197 25.806 69.4633 25.806C72.907 25.806 75.5635 22.9851 75.5635 19.4328C75.5635 15.8806 73.0054 13.1642 69.5617 13.1642C66.1181 13.1642 63.3631 15.9851 63.3631 19.5373ZM66.3148 19.4328C66.3148 17.3433 67.5939 15.8806 69.4633 15.8806C71.3327 15.8806 72.7102 17.4478 72.7102 19.5373C72.7102 21.6269 71.4311 23.0896 69.5617 23.0896C67.6923 23.0896 66.3148 21.5224 66.3148 19.4328ZM80.0894 13.3731V10.3433C80.0894 10.2388 80.0894 10.1343 79.9911 10.1343H77.4329C77.3345 10.1343 77.2361 10.2388 77.2361 10.3433V13.3731H75.9571C75.8587 13.3731 75.7603 13.4776 75.7603 13.5821V15.8806C75.7603 15.9851 75.8587 16.0896 75.9571 16.0896H77.2361V22.1493C77.2361 24.5522 78.3184 25.806 80.5814 25.806C81.4669 25.806 82.3524 25.597 83.0411 25.1791C83.1395 25.1791 83.1395 25.0746 83.1395 24.9701V22.7761C83.1395 22.6716 83.1395 22.5672 83.0411 22.5672H82.8444C82.3524 22.8806 81.7621 22.9851 81.2701 22.9851C80.483 22.9851 80.0894 22.5672 80.0894 21.7313V16.0896H83.0411C83.1395 16.0896 83.2379 15.9851 83.2379 15.8806V13.5821C83.2379 13.4776 83.1395 13.3731 83.0411 13.3731H80.0894ZM92.7818 13.0597C92.7818 11.9104 93.1753 11.4925 94.0608 11.4925C94.5528 11.4925 95.0447 11.4925 95.5367 11.7015H95.6351C95.6351 11.7015 95.7335 11.597 95.7335 11.4925V9.29851C95.7335 9.19403 95.7335 9.08955 95.6351 9.08955C95.1431 8.8806 94.4544 8.77612 93.4705 8.77612C91.1091 8.77612 89.9284 10.2388 89.9284 12.8507V13.3731H88.6494C88.551 13.3731 88.4526 13.4776 88.4526 13.5821V15.8806C88.4526 15.9851 88.551 16.0896 88.6494 16.0896H89.9284V25.3881C89.9284 25.4925 90.0268 25.597 90.1252 25.597H92.6834C92.7818 25.597 92.7818 25.4925 92.7818 25.3881V16.0896H95.2415L98.8819 25.3881C98.4884 26.3284 98.0948 26.5373 97.5045 26.5373C97.0125 26.5373 96.5206 26.4328 96.0286 26.1194H95.9302L95.8318 26.2239L94.9463 28.209C94.9463 28.3134 94.9463 28.5224 95.0447 28.5224C95.9302 29.0448 96.7174 29.2537 97.7013 29.2537C99.5707 29.2537 100.653 28.3134 101.538 25.806L105.966 13.6866V13.4776C105.966 13.3731 105.868 13.3731 105.769 13.3731H103.113C103.014 13.3731 103.014 13.4776 103.014 13.5821L100.259 21.7313L97.3077 13.5821C97.3077 13.4776 97.2093 13.3731 97.1109 13.3731H92.7818V13.0597ZM84.6154 13.3731C84.517 13.3731 84.4186 13.4776 84.4186 13.5821V25.3881C84.4186 25.4925 84.517 25.597 84.6154 25.597H87.1735C87.2719 25.597 87.2719 25.4925 87.2719 25.3881V13.5821C87.2719 13.4776 87.2719 13.3731 87.1735 13.3731H84.6154ZM84.025 9.92537C84.025 10.9701 84.9106 11.9104 85.8945 11.9104C86.8784 11.9104 87.6655 10.9701 87.6655 9.92537C87.6655 8.8806 86.8784 8.04478 85.8945 8.04478C84.9106 8.04478 84.025 8.8806 84.025 9.92537ZM108.131 17.1343C109.114 17.1343 110 16.2985 110 15.2537C110 14.209 109.114 13.3731 108.131 13.3731C107.147 13.3731 106.36 14.209 106.36 15.2537C106.36 16.2985 107.147 17.1343 108.131 17.1343ZM108.131 13.5821C109.016 13.5821 109.803 14.3134 109.803 15.2537C109.803 16.194 109.016 16.9254 108.131 16.9254C107.245 16.9254 106.556 16.194 106.556 15.2537C106.556 14.3134 107.245 13.5821 108.131 13.5821ZM108.524 15.4627C108.819 15.3582 109.016 15.1493 109.016 14.8358C109.016 14.4179 108.623 14.209 108.229 14.209H107.442V16.194H107.835V15.5672H108.229L108.623 16.194H109.114L108.524 15.4627ZM108.229 14.5224C108.426 14.5224 108.623 14.6269 108.623 14.8358C108.623 15.0448 108.426 15.1493 108.229 15.1493H107.835V14.5224H108.229Z" fill="#1ED760"/>
</svg>
