<svg width="548" height="202" viewBox="0 0 548 202" fill="none" xmlns="http://www.w3.org/2000/svg">
<g filter="url(#filter0_d_22_216)">
<path d="M39.2992 84.4713C39.2992 67.6554 39.2991 59.2467 43.2649 52.8237C46.7536 47.174 52.321 42.5798 59.1677 39.7012C66.9515 36.4287 77.1414 36.4287 97.5202 36.4287H442.48C462.859 36.4287 473.049 36.4287 480.832 39.7012C487.679 42.5798 493.246 47.174 496.735 52.8237C500.701 59.2467 500.701 67.6554 500.701 84.4713V198C523.261 195.917 536.361 189.898 540 188.096V103.929C540 68.9508 540 51.4612 531.75 38.1013C524.494 26.3498 512.915 16.7953 498.674 10.8076C482.484 4.00047 461.289 4 418.9 4H121.1C78.7113 4 57.5165 4.00047 41.3261 10.8076C27.0849 16.7953 15.5063 26.3498 8.24987 38.1013C0.000486528 51.4612 4.40614e-09 68.9508 0 103.929V188.096C21.1051 179.088 26.9272 176.686 39.2992 173.359V84.4713Z" fill="url(#paint0_linear_22_216)" fill-opacity="0.9" shape-rendering="crispEdges"/>
</g>
<defs>
<filter id="filter0_d_22_216" x="0" y="0" width="548" height="202" filterUnits="userSpaceOnUse" color-interpolation-filters="sRGB">
<feFlood flood-opacity="0" result="BackgroundImageFix"/>
<feColorMatrix in="SourceAlpha" type="matrix" values="0 0 0 0 0 0 0 0 0 0 0 0 0 0 0 0 0 0 127 0" result="hardAlpha"/>
<feOffset dx="4"/>
<feGaussianBlur stdDeviation="2"/>
<feComposite in2="hardAlpha" operator="out"/>
<feColorMatrix type="matrix" values="0 0 0 0 0 0 0 0 0 0 0 0 0 0 0 0 0 0 0.25 0"/>
<feBlend mode="normal" in2="BackgroundImageFix" result="effect1_dropShadow_22_216"/>
<feBlend mode="normal" in="SourceGraphic" in2="effect1_dropShadow_22_216" result="shape"/>
</filter>
<linearGradient id="paint0_linear_22_216" x1="-5.09429" y1="280.578" x2="222.712" y2="-160.042" gradientUnits="userSpaceOnUse">
<stop stop-color="#333333"/>
<stop offset="1" stop-color="#333333"/>
</linearGradient>
</defs>
</svg>
