<svg width="17" height="27" viewBox="0 0 17 27" fill="none" xmlns="http://www.w3.org/2000/svg">
<path d="M13.333 0C13.3945 0 13.456 0.000417233 13.5173 0.00124931C15.2942 0.025351 16.1826 0.0374019 16.4269 0.665889C16.6712 1.29438 15.8467 2.07016 14.1977 3.62172C11.6136 6.05327 10 9.50453 10 13.333C10 17.1615 11.6137 20.6123 14.198 23.0436C15.8474 24.5955 16.6722 25.3714 16.4279 25.9999C16.1837 26.6284 15.2951 26.6405 13.5179 26.6648C13.4564 26.6656 13.3947 26.666 13.333 26.666C5.96921 26.666 1.28859e-07 20.6968 0 13.333C0 5.96921 5.96921 0 13.333 0Z" fill="#222222"/>
</svg>
