<svg width="65" height="66" viewBox="0 0 65 66" fill="none" xmlns="http://www.w3.org/2000/svg">
<path fill-rule="evenodd" clip-rule="evenodd" d="M30.1143 7.07143V0H34.7472V7.07143H30.1143ZM43.1654 9.36683L46.6402 3.2428L50.6524 5.59994L47.1777 11.724L43.1654 9.36683ZM32.4308 49.5C41.3863 49.5 48.6461 42.1127 48.6461 33C48.6461 23.8873 41.3863 16.5 32.4308 16.5C23.4753 16.5 16.2154 23.8873 16.2154 33C16.2154 42.1127 23.4753 49.5 32.4308 49.5ZM32.4308 54.2143C43.945 54.2143 53.2791 44.7163 53.2791 33C53.2791 21.2837 43.945 11.7857 32.4308 11.7857C20.9165 11.7857 11.5824 21.2837 11.5824 33C11.5824 44.7163 20.9165 54.2143 32.4308 54.2143ZM57.9121 30.6429H64.8615V35.3571H57.9121V30.6429ZM59.3583 14.4587L53.3399 17.9944L55.6564 22.0771L61.6748 18.5413L59.3583 14.4587ZM14.2092 5.59994L17.684 11.724L21.6962 9.36683L18.2215 3.2428L14.2092 5.59994ZM9.20512 22.0771L3.18672 18.5413L5.5032 14.4587L11.5216 17.9944L9.20512 22.0771ZM30.1143 58.9286V66H34.7472V58.9286H30.1143ZM6.94945 30.6429H0V35.3571H6.94945V30.6429ZM3.18659 47.4587L9.205 43.9229L11.5215 48.0056L5.50308 51.5413L3.18659 47.4587ZM17.6841 54.2764L14.2094 60.4005L18.2217 62.7576L21.6964 56.6336L17.6841 54.2764ZM46.64 62.7576L43.1653 56.6336L47.1776 54.2764L50.6523 60.4005L46.64 62.7576ZM53.3401 48.0056L59.3585 51.5413L61.6749 47.4587L55.6565 43.9229L53.3401 48.0056Z" fill="white"/>
</svg>
