<svg width="40" height="45" viewBox="0 0 40 45" fill="none" xmlns="http://www.w3.org/2000/svg">
<mask id="path-1-inside-1_81_79" fill="white">
<path d="M2.90695 7.03147C2.90695 5.16661 3.67262 3.37813 5.03552 2.05947C6.39841 0.740814 8.2469 0 10.1743 0C12.1018 0 13.9502 0.740814 15.3131 2.05947C16.676 3.37813 17.4417 5.16661 17.4417 7.03147V28.2665C18.8438 29.6511 19.7922 31.4054 20.168 33.3094C20.5439 35.2134 20.3303 37.1824 19.5542 38.9695C18.7781 40.7565 17.4739 42.2821 15.8053 43.3549C14.1366 44.4277 12.1778 45 10.1743 45C8.17088 45 6.21202 44.4277 4.54338 43.3549C2.87474 42.2821 1.57059 40.7565 0.794468 38.9695C0.0183468 37.1824 -0.195201 35.2134 0.180602 33.3094C0.556406 31.4054 1.50483 29.6511 2.90695 28.2665V7.03147ZM10.1743 2.81259C9.01787 2.81259 7.90878 3.25708 7.09104 4.04827C6.2733 4.83947 5.8139 5.91256 5.8139 7.03147V29.4956L5.32844 29.9175C4.23128 30.8668 3.4579 32.1161 3.11065 33.5C2.7634 34.8839 2.85864 36.3372 3.38378 37.6676C3.90892 38.998 4.83919 40.1427 6.0515 40.9503C7.2638 41.7579 8.70099 42.1904 10.1729 42.1904C11.6448 42.1904 13.0819 41.7579 14.2942 40.9503C15.5066 40.1427 16.4368 38.998 16.962 37.6676C17.4871 36.3372 17.5823 34.8839 17.2351 33.5C16.8878 32.1161 16.1145 30.8668 15.0173 29.9175L14.5347 29.4928V7.03147C14.5347 5.91256 14.0753 4.83947 13.2576 4.04827C12.4399 3.25708 11.3308 2.81259 10.1743 2.81259ZM24.7091 5.62518C25.0946 5.62518 25.4643 5.77334 25.7368 6.03707C26.0094 6.30081 26.1625 6.6585 26.1625 7.03147V10.6682L28.0404 8.84841C28.3134 8.58434 28.6835 8.43599 29.0695 8.43599C29.4555 8.43599 29.8256 8.58434 30.0986 8.84841C30.3715 9.11247 30.5248 9.47062 30.5248 9.84406C30.5248 10.2175 30.3715 10.5757 30.0986 10.8397L26.1625 14.6452V20.065L31.0142 17.3565L32.4532 12.1532C32.5028 11.9748 32.5883 11.8076 32.7047 11.6612C32.8211 11.5147 32.9662 11.3919 33.1316 11.2997C33.2971 11.2075 33.4797 11.1477 33.6691 11.1238C33.8584 11.0999 34.0508 11.1123 34.2351 11.1604C34.4195 11.2084 34.5923 11.2911 34.7437 11.4037C34.895 11.5163 35.022 11.6567 35.1173 11.8168C35.2126 11.9769 35.2743 12.1536 35.299 12.3368C35.3237 12.52 35.3109 12.7061 35.2613 12.8845L34.5723 15.3652L37.8281 13.5482C38.1618 13.3647 38.5569 13.3163 38.9273 13.4136C39.2977 13.5109 39.6133 13.746 39.8053 14.0676C39.9972 14.3892 40.0498 14.7712 39.9517 15.1302C39.8536 15.4892 39.6127 15.7961 39.2816 15.9839L36.0258 17.8009L38.5956 18.4675C38.7799 18.5155 38.9528 18.5982 39.1041 18.7108C39.2555 18.8234 39.3824 18.9638 39.4777 19.1239C39.573 19.284 39.6347 19.4607 39.6595 19.6439C39.6842 19.8271 39.6713 20.0132 39.6217 20.1916C39.5721 20.37 39.4866 20.5372 39.3702 20.6836C39.2538 20.8301 39.1087 20.9529 38.9433 21.0451C38.7778 21.1373 38.5952 21.197 38.4058 21.2209C38.2165 21.2448 38.0241 21.2324 37.8398 21.1844L32.4677 19.7922L27.616 22.5007L32.4677 25.2092L37.8427 23.817C38.0282 23.7658 38.2224 23.7509 38.4139 23.7731C38.6055 23.7953 38.7906 23.8541 38.9584 23.9463C39.1262 24.0384 39.2733 24.1619 39.3913 24.3096C39.5092 24.4573 39.5956 24.6262 39.6454 24.8065C39.6952 24.9869 39.7074 25.175 39.6812 25.3599C39.6551 25.5449 39.5912 25.7229 39.4932 25.8837C39.3952 26.0445 39.2651 26.1848 39.1105 26.2964C38.9559 26.4081 38.7799 26.4888 38.5927 26.534L36.0258 27.2006L39.2816 29.0175C39.6127 29.2053 39.8536 29.5122 39.9517 29.8712C40.0498 30.2302 39.9972 30.6122 39.8053 30.9338C39.6133 31.2554 39.2977 31.4905 38.9273 31.5878C38.5569 31.6851 38.1618 31.6367 37.8281 31.4532L34.5723 29.6363L35.2613 32.1198C35.3142 32.2993 35.3296 32.4872 35.3067 32.6725C35.2837 32.8578 35.2229 33.0369 35.1277 33.1993C35.0325 33.3616 34.9049 33.504 34.7522 33.6181C34.5996 33.7323 34.4249 33.8158 34.2386 33.864C34.0522 33.9122 33.8577 33.924 33.6666 33.8987C33.4755 33.8734 33.2914 33.8115 33.1253 33.7167C32.9591 33.6219 32.8141 33.496 32.6987 33.3465C32.5833 33.1969 32.4998 33.0265 32.4532 32.8454L31.0171 27.6478L26.1625 24.9364V30.3563L30.0986 34.1617C30.2337 34.2925 30.3409 34.4477 30.414 34.6185C30.4872 34.7894 30.5248 34.9725 30.5248 35.1574C30.5248 35.3423 30.4872 35.5254 30.414 35.6962C30.3409 35.8671 30.2337 36.0223 30.0986 36.153C29.9634 36.2838 29.803 36.3875 29.6264 36.4583C29.4499 36.529 29.2606 36.5654 29.0695 36.5654C28.8784 36.5654 28.6891 36.529 28.5126 36.4583C28.336 36.3875 28.1756 36.2838 28.0404 36.153L26.1625 34.3333V37.97C26.1625 38.3429 26.0094 38.7006 25.7368 38.9644C25.4643 39.2281 25.0946 39.3763 24.7091 39.3763C24.3236 39.3763 23.9539 39.2281 23.6813 38.9644C23.4087 38.7006 23.2556 38.3429 23.2556 37.97V7.03147C23.2556 6.6585 23.4087 6.30081 23.6813 6.03707C23.9539 5.77334 24.3236 5.62518 24.7091 5.62518Z"/>
</mask>
<path d="M2.90695 7.03147C2.90695 5.16661 3.67262 3.37813 5.03552 2.05947C6.39841 0.740814 8.2469 0 10.1743 0C12.1018 0 13.9502 0.740814 15.3131 2.05947C16.676 3.37813 17.4417 5.16661 17.4417 7.03147V28.2665C18.8438 29.6511 19.7922 31.4054 20.168 33.3094C20.5439 35.2134 20.3303 37.1824 19.5542 38.9695C18.7781 40.7565 17.4739 42.2821 15.8053 43.3549C14.1366 44.4277 12.1778 45 10.1743 45C8.17088 45 6.21202 44.4277 4.54338 43.3549C2.87474 42.2821 1.57059 40.7565 0.794468 38.9695C0.0183468 37.1824 -0.195201 35.2134 0.180602 33.3094C0.556406 31.4054 1.50483 29.6511 2.90695 28.2665V7.03147ZM10.1743 2.81259C9.01787 2.81259 7.90878 3.25708 7.09104 4.04827C6.2733 4.83947 5.8139 5.91256 5.8139 7.03147V29.4956L5.32844 29.9175C4.23128 30.8668 3.4579 32.1161 3.11065 33.5C2.7634 34.8839 2.85864 36.3372 3.38378 37.6676C3.90892 38.998 4.83919 40.1427 6.0515 40.9503C7.2638 41.7579 8.70099 42.1904 10.1729 42.1904C11.6448 42.1904 13.0819 41.7579 14.2942 40.9503C15.5066 40.1427 16.4368 38.998 16.962 37.6676C17.4871 36.3372 17.5823 34.8839 17.2351 33.5C16.8878 32.1161 16.1145 30.8668 15.0173 29.9175L14.5347 29.4928V7.03147C14.5347 5.91256 14.0753 4.83947 13.2576 4.04827C12.4399 3.25708 11.3308 2.81259 10.1743 2.81259ZM24.7091 5.62518C25.0946 5.62518 25.4643 5.77334 25.7368 6.03707C26.0094 6.30081 26.1625 6.6585 26.1625 7.03147V10.6682L28.0404 8.84841C28.3134 8.58434 28.6835 8.43599 29.0695 8.43599C29.4555 8.43599 29.8256 8.58434 30.0986 8.84841C30.3715 9.11247 30.5248 9.47062 30.5248 9.84406C30.5248 10.2175 30.3715 10.5757 30.0986 10.8397L26.1625 14.6452V20.065L31.0142 17.3565L32.4532 12.1532C32.5028 11.9748 32.5883 11.8076 32.7047 11.6612C32.8211 11.5147 32.9662 11.3919 33.1316 11.2997C33.2971 11.2075 33.4797 11.1477 33.6691 11.1238C33.8584 11.0999 34.0508 11.1123 34.2351 11.1604C34.4195 11.2084 34.5923 11.2911 34.7437 11.4037C34.895 11.5163 35.022 11.6567 35.1173 11.8168C35.2126 11.9769 35.2743 12.1536 35.299 12.3368C35.3237 12.52 35.3109 12.7061 35.2613 12.8845L34.5723 15.3652L37.8281 13.5482C38.1618 13.3647 38.5569 13.3163 38.9273 13.4136C39.2977 13.5109 39.6133 13.746 39.8053 14.0676C39.9972 14.3892 40.0498 14.7712 39.9517 15.1302C39.8536 15.4892 39.6127 15.7961 39.2816 15.9839L36.0258 17.8009L38.5956 18.4675C38.7799 18.5155 38.9528 18.5982 39.1041 18.7108C39.2555 18.8234 39.3824 18.9638 39.4777 19.1239C39.573 19.284 39.6347 19.4607 39.6595 19.6439C39.6842 19.8271 39.6713 20.0132 39.6217 20.1916C39.5721 20.37 39.4866 20.5372 39.3702 20.6836C39.2538 20.8301 39.1087 20.9529 38.9433 21.0451C38.7778 21.1373 38.5952 21.197 38.4058 21.2209C38.2165 21.2448 38.0241 21.2324 37.8398 21.1844L32.4677 19.7922L27.616 22.5007L32.4677 25.2092L37.8427 23.817C38.0282 23.7658 38.2224 23.7509 38.4139 23.7731C38.6055 23.7953 38.7906 23.8541 38.9584 23.9463C39.1262 24.0384 39.2733 24.1619 39.3913 24.3096C39.5092 24.4573 39.5956 24.6262 39.6454 24.8065C39.6952 24.9869 39.7074 25.175 39.6812 25.3599C39.6551 25.5449 39.5912 25.7229 39.4932 25.8837C39.3952 26.0445 39.2651 26.1848 39.1105 26.2964C38.9559 26.4081 38.7799 26.4888 38.5927 26.534L36.0258 27.2006L39.2816 29.0175C39.6127 29.2053 39.8536 29.5122 39.9517 29.8712C40.0498 30.2302 39.9972 30.6122 39.8053 30.9338C39.6133 31.2554 39.2977 31.4905 38.9273 31.5878C38.5569 31.6851 38.1618 31.6367 37.8281 31.4532L34.5723 29.6363L35.2613 32.1198C35.3142 32.2993 35.3296 32.4872 35.3067 32.6725C35.2837 32.8578 35.2229 33.0369 35.1277 33.1993C35.0325 33.3616 34.9049 33.504 34.7522 33.6181C34.5996 33.7323 34.4249 33.8158 34.2386 33.864C34.0522 33.9122 33.8577 33.924 33.6666 33.8987C33.4755 33.8734 33.2914 33.8115 33.1253 33.7167C32.9591 33.6219 32.8141 33.496 32.6987 33.3465C32.5833 33.1969 32.4998 33.0265 32.4532 32.8454L31.0171 27.6478L26.1625 24.9364V30.3563L30.0986 34.1617C30.2337 34.2925 30.3409 34.4477 30.414 34.6185C30.4872 34.7894 30.5248 34.9725 30.5248 35.1574C30.5248 35.3423 30.4872 35.5254 30.414 35.6962C30.3409 35.8671 30.2337 36.0223 30.0986 36.153C29.9634 36.2838 29.803 36.3875 29.6264 36.4583C29.4499 36.529 29.2606 36.5654 29.0695 36.5654C28.8784 36.5654 28.6891 36.529 28.5126 36.4583C28.336 36.3875 28.1756 36.2838 28.0404 36.153L26.1625 34.3333V37.97C26.1625 38.3429 26.0094 38.7006 25.7368 38.9644C25.4643 39.2281 25.0946 39.3763 24.7091 39.3763C24.3236 39.3763 23.9539 39.2281 23.6813 38.9644C23.4087 38.7006 23.2556 38.3429 23.2556 37.97V7.03147C23.2556 6.6585 23.4087 6.30081 23.6813 6.03707C23.9539 5.77334 24.3236 5.62518 24.7091 5.62518Z" fill="#4996EE" stroke="white" stroke-opacity="0.5" mask="url(#path-1-inside-1_81_79)"/>
</svg>
