<svg width="18" height="18" viewBox="0 0 18 18" fill="none" xmlns="http://www.w3.org/2000/svg">
<foreignObject x="-15.2691" y="-15.2691" width="48.5383" height="48.5383"><div xmlns="http://www.w3.org/1999/xhtml" style="backdrop-filter:blur(7.63px);clip-path:url(#bgblur_0_604_187_clip_path);height:100%;width:100%"></div></foreignObject><path data-figma-bg-blur-radius="15.2691" d="M18 9C18 13.9706 13.9706 18 9 18C4.02944 18 0 13.9706 0 9C0 4.02944 4.02944 0 9 0C13.9706 0 18 4.02944 18 9Z" fill="white"/>
<defs>
<clipPath id="bgblur_0_604_187_clip_path" transform="translate(15.2691 15.2691)"><path d="M18 9C18 13.9706 13.9706 18 9 18C4.02944 18 0 13.9706 0 9C0 4.02944 4.02944 0 9 0C13.9706 0 18 4.02944 18 9Z"/>
</clipPath></defs>
</svg>
