<svg width="41" height="33" viewBox="0 0 41 33" fill="none" xmlns="http://www.w3.org/2000/svg">
<g filter="url(#filter0_d_49_83)">
<path fill-rule="evenodd" clip-rule="evenodd" d="M12.4412 13.6217L2.7285 4.8754C1.1655 3.46792 2.29692 0.885427 4.42474 1.00369L36.59 2.79138C38.5673 2.90127 39.4227 5.28509 37.9664 6.62709L14.2763 28.4577C12.7091 29.9019 10.1938 28.628 10.5054 26.5478L12.4412 13.6217ZM13.7577 12.7832L3.7543 3.77515C3.2333 3.30599 3.61044 2.44516 4.31971 2.48458L36.485 4.27227C37.1441 4.3089 37.4292 5.1035 36.9438 5.55084L13.2536 27.3815C12.7313 27.8629 11.8928 27.4382 11.9967 26.7449L13.9904 13.4318C14.0267 13.1896 13.9396 12.947 13.7577 12.7832Z" fill="white"/>
</g>
<defs>
<filter id="filter0_d_49_83" x="0" y="0" width="40.697" height="32.0752" filterUnits="userSpaceOnUse" color-interpolation-filters="sRGB">
<feFlood flood-opacity="0" result="BackgroundImageFix"/>
<feColorMatrix in="SourceAlpha" type="matrix" values="0 0 0 0 0 0 0 0 0 0 0 0 0 0 0 0 0 0 127 0" result="hardAlpha"/>
<feOffset dy="1"/>
<feGaussianBlur stdDeviation="1"/>
<feColorMatrix type="matrix" values="0 0 0 0 0 0 0 0 0 0 0 0 0 0 0 0 0 0 0.25 0"/>
<feBlend mode="normal" in2="BackgroundImageFix" result="effect1_dropShadow_49_83"/>
<feBlend mode="normal" in="SourceGraphic" in2="effect1_dropShadow_49_83" result="shape"/>
</filter>
</defs>
</svg>
