<svg width="9" height="14" viewBox="0 0 9 14" fill="none" xmlns="http://www.w3.org/2000/svg">
<path d="M9 9.80154C8.99957 10.5716 8.7724 11.3267 8.34333 11.9843C7.91427 12.642 7.2998 13.1769 6.56708 13.5306C5.83437 13.8843 5.0116 14.0432 4.18868 13.9899C3.36576 13.9367 2.57436 13.6733 1.90096 13.2285C1.22756 12.7838 0.698077 12.1748 0.370364 11.4682C0.0426496 10.7615 -0.0706819 9.98439 0.0427536 9.22168C0.156189 8.45898 0.492027 7.74005 1.01357 7.14347C1.53511 6.54688 2.22228 6.09559 3 5.83892V1.40022C3 1.02886 3.15804 0.672706 3.43934 0.410114C3.72065 0.147522 4.10218 0 4.5 0C4.89783 0 5.27936 0.147522 5.56066 0.410114C5.84196 0.672706 6 1.02886 6 1.40022V5.83892C6.87773 6.1286 7.63761 6.66528 8.17491 7.37499C8.71222 8.08469 9.00049 8.93249 9 9.80154Z" fill="#4996EE"/>
<path d="M4.5 0.25C4.83673 0.25 5.15636 0.375139 5.38965 0.592773C5.62238 0.81002 5.75 1.1011 5.75 1.40039V6.01953L5.92188 6.07617C6.75334 6.35062 7.47016 6.85876 7.97559 7.52637C8.48069 8.19368 8.75046 8.98877 8.75 9.80176C8.74953 10.5222 8.53687 11.2298 8.13379 11.8477C7.73052 12.4657 7.15126 12.971 6.45801 13.3057C5.76483 13.6402 4.98536 13.7907 4.20508 13.7402C3.4246 13.6897 2.67533 13.4397 2.03906 13.0195C1.40291 12.5994 0.904162 12.0263 0.59668 11.3633C0.289335 10.7006 0.183944 9.97257 0.290039 9.25879C0.396227 8.54481 0.711205 7.8692 1.20215 7.30762C1.69315 6.74611 2.34164 6.31927 3.07812 6.07617L3.25 6.01953V1.40039C3.25 1.1011 3.37762 0.81002 3.61035 0.592773C3.84364 0.375139 4.16327 0.25 4.5 0.25Z" stroke="white" stroke-opacity="0.5" stroke-width="0.5"/>
</svg>
