<svg width="29" height="29" viewBox="0 0 29 29" fill="none" xmlns="http://www.w3.org/2000/svg">
<path d="M19.0312 25.375H0.90625C0.407812 25.375 0 25.7828 0 26.2812V28.0938C0 28.5922 0.407812 29 0.90625 29H19.0312C19.5297 29 19.9375 28.5922 19.9375 28.0938V26.2812C19.9375 25.7828 19.5297 25.375 19.0312 25.375ZM27.9352 6.07754L23.3473 1.48965C22.9961 1.13848 22.4184 1.13848 22.0672 1.48965L21.4271 2.12969C21.076 2.48086 21.076 3.05859 21.4271 3.40977L23.5625 5.54512V9.0625C23.5625 10.6541 24.7463 11.9682 26.2812 12.1891V21.2969C26.2812 22.0445 25.6695 22.6562 24.9219 22.6562C24.1742 22.6562 23.5625 22.0445 23.5625 21.2969V19.4844C23.5625 16.7316 21.3309 14.5 18.5781 14.5H18.125V3.625C18.125 1.62559 16.4994 0 14.5 0H5.4375C3.43809 0 1.8125 1.62559 1.8125 3.625V23.5625H18.125V17.2188H18.5781C19.8299 17.2188 20.8438 18.2326 20.8438 19.4844V21.059C20.8438 23.1943 22.373 25.1371 24.4971 25.358C26.9326 25.6016 29 23.6871 29 21.2969V8.64336C29 7.68047 28.6148 6.75723 27.9352 6.07754ZM14.5 10.875H5.4375V3.625H14.5V10.875Z" fill="#333333"/>
</svg>
