<svg width="24" height="24" viewBox="0 0 24 24" fill="none" xmlns="http://www.w3.org/2000/svg">
<path d="M12.8722 -0.000182996C13.8275 -0.0021843 14.6935 0.500003 15.1726 1.243C15.4058 1.60251 15.5616 2.04619 15.5239 2.51427C15.4988 2.87432 15.6157 3.23408 15.823 3.56964C16.4835 4.58826 17.943 4.96921 19.0778 4.39083C20.3543 3.69215 21.9688 4.10877 22.7071 5.29522L23.5749 6.70941C24.3261 7.89584 23.9162 9.4207 22.6268 10.1074C21.5308 10.7217 21.1464 12.0785 21.8069 13.1091C22.0141 13.4327 22.2471 13.7082 22.6089 13.8754C23.0611 14.1025 23.4104 14.4618 23.6565 14.8213C24.1357 15.5643 24.0988 16.4763 23.6358 17.2813L22.7352 18.7232C22.2592 19.4922 21.3695 19.9741 20.4529 19.976C20.0011 19.9769 19.4974 19.858 19.0838 19.6188C18.7478 19.4156 18.3604 19.3444 17.9473 19.3452C16.6693 19.3479 15.5999 20.3461 15.5637 21.5342C15.5666 22.9142 14.3812 23.9967 12.8967 23.9998L11.1411 24.0035C9.64367 24.0066 8.45379 22.9291 8.45089 21.5491C8.42259 20.3612 7.34906 19.3674 6.07108 19.3701C5.64509 19.371 5.25797 19.4438 4.93567 19.6485C4.52309 19.8894 4.00699 20.0104 3.56808 20.0114C2.63864 20.0133 1.74692 19.5352 1.26769 18.7682L0.373954 17.33C-0.10531 16.551 -0.133089 15.6151 0.342982 14.8701C0.54877 14.5097 0.935283 14.1489 1.37371 13.9199C1.73481 13.7512 1.96659 13.4747 2.18536 13.1502C2.82864 12.1169 2.43854 10.7617 1.34 10.152C0.0605819 9.47068 -0.355696 7.94755 0.377623 6.75801L1.23955 5.3402C1.98578 4.15063 3.58561 3.72728 4.87795 4.42058C6.00224 4.99422 7.46014 4.60717 8.11635 3.58579C8.32219 3.24936 8.43762 2.88911 8.41105 2.52917C8.38425 2.06122 8.52532 1.61693 8.76983 1.25641C9.2459 0.511415 10.1098 0.0296045 11.0521 0.0036303L12.8722 -0.000182996ZM11.9996 8.61766C9.97289 8.62191 8.33662 10.1373 8.34057 12.0213C8.34452 13.9053 9.98709 15.4019 12.0138 15.3976C14.0405 15.3934 15.638 13.8901 15.6341 12.0061C15.6302 10.1221 14.0263 8.61342 11.9996 8.61766Z" fill="white"/>
</svg>
