<svg width="9" height="15" viewBox="0 0 9 15" fill="none" xmlns="http://www.w3.org/2000/svg">
<path d="M8.72085 9.84407C8.72043 10.6174 8.50031 11.3758 8.08455 12.0363C7.66879 12.6968 7.07338 13.2341 6.36339 13.5893C5.6534 13.9445 4.85615 14.1041 4.05876 14.0506C3.26137 13.9971 2.49451 13.7326 1.842 13.2859C1.18949 12.8393 0.676425 12.2276 0.358876 11.5179C0.0413267 10.8082 -0.0684896 10.0277 0.0414275 9.26169C0.151345 8.49568 0.476766 7.77363 0.98213 7.17446C1.48749 6.57528 2.15336 6.12204 2.90695 5.86425V1.4063C2.90695 1.03332 3.06008 0.675625 3.33266 0.411893C3.60524 0.148162 3.97494 0 4.36043 0C4.74591 0 5.11561 0.148162 5.38819 0.411893C5.66077 0.675625 5.8139 1.03332 5.8139 1.4063V5.86425C6.66441 6.15519 7.40072 6.6942 7.92136 7.40698C8.44199 8.11977 8.72132 8.97125 8.72085 9.84407Z" fill="#4996EE"/>
<path d="M4.36035 0.25C4.68208 0.25 4.98877 0.374074 5.21387 0.591797C5.43869 0.809317 5.56346 1.10231 5.56348 1.40625V6.04297L5.7334 6.10059C6.53623 6.37528 7.22998 6.88419 7.71973 7.55469C8.20928 8.22504 8.47111 9.02481 8.4707 9.84375C8.47031 10.5696 8.26397 11.2823 7.87305 11.9033C7.4821 12.5244 6.92171 13.0311 6.25195 13.3662C5.58204 13.7014 4.82849 13.8513 4.0752 13.8008C3.32216 13.7502 2.59845 13.501 1.9834 13.0801C1.36828 12.659 0.8853 12.0829 0.586914 11.416C0.288565 10.7492 0.18589 10.0159 0.289062 9.29688C0.392266 8.57811 0.69751 7.89965 1.17285 7.33594C1.6485 6.77199 2.27684 6.34395 2.98828 6.10059L3.15723 6.04297V1.40625C3.15724 1.10231 3.28202 0.809317 3.50684 0.591797C3.73192 0.374045 4.03861 0.250019 4.36035 0.25Z" stroke="white" stroke-opacity="0.5" stroke-width="0.5"/>
</svg>
