<svg width="36" height="12" viewBox="0 0 36 12" fill="none" xmlns="http://www.w3.org/2000/svg">
<path d="M17.8384 5.42999C23.0146 5.43022 27.9928 7.46037 31.7441 11.1008C32.0266 11.3819 32.4781 11.3783 32.7564 11.0929L35.4567 8.31111C35.5976 8.16632 35.6761 7.9702 35.6749 7.76615C35.6738 7.56209 35.593 7.36693 35.4505 7.22383C25.6043 -2.40794 10.071 -2.40794 0.224884 7.22383C0.0822566 7.36682 0.00133147 7.56193 1.62831e-05 7.76598C-0.0012989 7.97004 0.0771043 8.16622 0.217876 8.31111L2.91897 11.0929C3.19701 11.3788 3.64888 11.3823 3.9312 11.1008C7.68303 7.46013 12.6618 5.42998 17.8384 5.42999Z" fill="black"/>
</svg>
