<svg width="24" height="9" viewBox="0 0 24 9" fill="none" xmlns="http://www.w3.org/2000/svg">
<path d="M11.6173 5.43387C14.4612 5.43369 17.2037 6.5127 19.3118 8.46123C19.5969 8.73777 20.046 8.73177 20.324 8.44771L23.0212 5.66595C23.1632 5.52004 23.242 5.32209 23.24 5.11641C23.2379 4.91072 23.1552 4.71446 23.0103 4.57152C16.5907 -1.52384 6.64923 -1.52384 0.229678 4.57152C0.0846702 4.71445 0.00193657 4.91082 3.35647e-05 5.11657C-0.00186944 5.32232 0.0772174 5.52025 0.219556 5.66595L2.91598 8.44771C3.19393 8.73177 3.64308 8.73777 3.92821 8.46123C6.0349 6.51398 8.77518 5.43507 11.6173 5.43387Z" fill="black"/>
</svg>
